<?xml version="1.0" encoding="utf-8"?>
<!-- Generator: Adobe Illustrator 16.0.4, SVG Export Plug-In . SVG Version: 6.00 Build 0)  -->
<!DOCTYPE svg PUBLIC "-//W3C//DTD SVG 1.0//EN" "http://www.w3.org/TR/2001/REC-SVG-20010904/DTD/svg10.dtd">
<svg version="1.0" id="Ebene_1" xmlns="http://www.w3.org/2000/svg" xmlns:xlink="http://www.w3.org/1999/xlink" x="0px" y="0px"
	 width="39.685px" height="39.686px" viewBox="0 0 39.685 39.686" enable-background="new 0 0 39.685 39.686" xml:space="preserve">
<g>
	<path fill="#999999" d="M38.593,19.843c0,5.156-1.836,9.57-5.508,13.242s-8.086,5.508-13.243,5.508
		c-5.156,0-9.57-1.836-13.242-5.508s-5.508-8.086-5.508-13.242S2.928,10.272,6.6,6.601s8.086-5.508,13.242-5.508
		c5.157,0,9.571,1.836,13.243,5.508S38.593,14.687,38.593,19.843z M30.741,20.741c0.234-0.234,0.352-0.533,0.352-0.898
		c0-0.363-0.117-0.664-0.352-0.898s-0.535-0.352-0.898-0.352h-8.75v-8.75c0-0.363-0.117-0.664-0.352-0.898
		c-0.235-0.234-0.536-0.352-0.899-0.352c-0.365,0-0.664,0.117-0.898,0.352s-0.352,0.535-0.352,0.898v8.75h-8.75
		c-0.365,0-0.664,0.117-0.898,0.352s-0.352,0.535-0.352,0.898c0,0.365,0.117,0.664,0.352,0.898s0.533,0.352,0.898,0.352h8.75v8.75
		c0,0.365,0.117,0.664,0.352,0.898s0.533,0.352,0.898,0.352c0.363,0,0.664-0.117,0.899-0.352c0.234-0.234,0.352-0.533,0.352-0.898
		v-8.75h8.75C30.206,21.093,30.507,20.976,30.741,20.741z"/>
</g>
</svg>
