<?xml version="1.0" encoding="utf-8"?>
<!-- Generator: Adobe Illustrator 16.0.4, SVG Export Plug-In . SVG Version: 6.00 Build 0)  -->
<!DOCTYPE svg PUBLIC "-//W3C//DTD SVG 1.0//EN" "http://www.w3.org/TR/2001/REC-SVG-20010904/DTD/svg10.dtd">
<svg version="1.0" id="Ebene_1" xmlns="http://www.w3.org/2000/svg" xmlns:xlink="http://www.w3.org/1999/xlink" x="0px" y="0px"
	 width="56.693px" height="56.693px" viewBox="0 0 56.693 56.693" enable-background="new 0 0 56.693 56.693" xml:space="preserve">
<g>
	<path fill="#FFFFFF" d="M12.334,6.044c-4.095,0-6.968,6.453-6.968,9.947c0,3.377,2.494,7.11,5.968,7.729v27.258
		c0,0.553,0.448,1,1,1s1-0.447,1-1V23.72c3.475-0.618,5.969-4.352,5.969-7.729C19.303,12.497,16.429,6.044,12.334,6.044z
		 M12.407,21.813c-0.025-0.002-0.047-0.015-0.072-0.015s-0.047,0.013-0.072,0.015C9.5,21.76,7.366,18.662,7.366,15.991
		c0-2.919,2.455-7.947,4.968-7.947c2.514,0,4.969,5.028,4.969,7.947C17.303,18.662,15.169,21.76,12.407,21.813z"/>
	<path fill="#FFFFFF" d="M49.149,9.27c-0.084-1.184-0.34-4.785-3.68-4.785c-2.473,0-2.838,2.569-2.891,4.508
		c-0.002,0.018-0.012,0.033-0.012,0.052v0.884v16.037v25.013c0,0.553,0.448,1,1,1c0.553,0,1-0.447,1-1V29.906
		c0.635,0.344,1.352,0.502,2.055,0.502h0.271c0.771,0,1.731,0,2.497-0.469c0.865-0.528,1.285-1.482,1.281-3.002L49.149,9.27z
		 M48.347,28.232c-0.285,0.175-0.961,0.175-1.454,0.175h-0.271c-1.383,0-2.055-0.799-2.055-2.442V9.928
		c0-3.026,0.434-3.443,0.902-3.443c0.553,0,1.477,0,1.686,2.941l1.52,17.597C48.675,27.483,48.618,28.066,48.347,28.232z"/>
	<path fill="#FFFFFF" d="M33.255,5.044c-0.552,0-1,0.447-1,1v7.887h-2.509V6.044c0-0.553-0.448-1-1-1s-1,0.447-1,1v7.887h-2.51
		V6.044c0-0.553-0.448-1-1-1s-1,0.447-1,1v7.887v4.556v0.107c0,0.018,0.009,0.031,0.01,0.049c0.052,2.471,1.304,4.318,2.963,4.318
		h1.538v28.017c0,0.553,0.448,1,1,1s1-0.447,1-1V22.961h1.536c1.66,0,2.91-1.848,2.963-4.318c0.002-0.018,0.01-0.031,0.01-0.049
		v-0.107v-4.556V6.044C34.255,5.491,33.808,5.044,33.255,5.044z M32.255,18.486c0,1.607-0.689,2.475-0.973,2.475h-5.074
		c-0.282,0-0.973-0.867-0.973-2.475v-2.556h7.019V18.486z"/>
</g>
</svg>
