<?xml version="1.0" encoding="utf-8"?>
<!-- Generator: Adobe Illustrator 16.0.4, SVG Export Plug-In . SVG Version: 6.00 Build 0)  -->
<!DOCTYPE svg PUBLIC "-//W3C//DTD SVG 1.0//EN" "http://www.w3.org/TR/2001/REC-SVG-20010904/DTD/svg10.dtd">
<svg version="1.0" id="Ebene_1" xmlns="http://www.w3.org/2000/svg" xmlns:xlink="http://www.w3.org/1999/xlink" x="0px" y="0px"
	 width="56.693px" height="56.693px" viewBox="0 0 56.693 56.693" enable-background="new 0 0 56.693 56.693" xml:space="preserve">
<path fill="#FFFFFF" d="M48.571,12.765c0.255-0.296,0.314-0.714,0.151-1.069s-0.519-0.583-0.909-0.583H36.895l4.636-6.546
	c0.319-0.451,0.212-1.075-0.238-1.395c-0.452-0.319-1.075-0.212-1.395,0.238l-5.454,7.702H8.658c-0.389,0-0.742,0.225-0.906,0.577
	s-0.109,0.768,0.14,1.065l19.081,22.762v15.078H15.919c-0.553,0-1,0.447-1,1s0.447,1,1,1h24.106c0.553,0,1-0.447,1-1s-0.447-1-1-1
	H28.973V35.524L48.571,12.765z M33.027,13.113l-2.072,2.926c-0.493-0.203-1.023-0.317-1.572-0.317c-1.58,0-3.148,0.882-4.092,2.301
	c-0.709,1.063-1.011,2.312-0.852,3.517c0.116,0.877,0.477,1.648,1.017,2.266l-1.176,1.66c-0.319,0.451-0.212,1.075,0.238,1.395
	c0.176,0.124,0.378,0.184,0.577,0.184c0.313,0,0.622-0.146,0.817-0.422l1.192-1.684c0.444,0.16,0.915,0.253,1.402,0.253
	c1.58,0,3.148-0.882,4.093-2.302c0.709-1.063,1.011-2.312,0.852-3.517c-0.107-0.812-0.432-1.526-0.905-2.119l2.932-4.14h10.154
	l-17.65,20.496L10.802,13.113H33.027z M27.353,22.849c-0.511-0.34-0.841-0.898-0.931-1.572c-0.096-0.725,0.094-1.486,0.534-2.147
	c0.577-0.869,1.508-1.408,2.427-1.408c0.428,0,0.816,0.114,1.157,0.342c0.511,0.339,0.841,0.896,0.93,1.57
	c0.096,0.725-0.094,1.486-0.534,2.147C30.089,23.053,28.424,23.563,27.353,22.849z"/>
</svg>
