<?xml version="1.0" encoding="utf-8"?>
<!-- Generator: Adobe Illustrator 16.0.4, SVG Export Plug-In . SVG Version: 6.00 Build 0)  -->
<!DOCTYPE svg PUBLIC "-//W3C//DTD SVG 1.0//EN" "http://www.w3.org/TR/2001/REC-SVG-20010904/DTD/svg10.dtd">
<svg version="1.0" id="Ebene_1" xmlns="http://www.w3.org/2000/svg" xmlns:xlink="http://www.w3.org/1999/xlink" x="0px" y="0px"
	 width="39.686px" height="39.686px" viewBox="0 0 39.686 39.686" enable-background="new 0 0 39.686 39.686" xml:space="preserve">
<g>
	<path fill="#999999" d="M11.171,26.796l6.875-6.953l-6.875-6.953c-0.625-0.572-0.639-1.158-0.039-1.758
		c0.598-0.599,1.184-0.586,1.758,0.039l6.953,6.875l6.953-6.875c0.572-0.625,1.158-0.638,1.758-0.039
		c0.598,0.6,0.586,1.186-0.039,1.758l-6.875,6.953l6.875,6.953c0.625,0.573,0.637,1.159,0.039,1.758
		c-0.6,0.6-1.186,0.586-1.758-0.039l-6.953-6.875l-6.953,6.875c-0.574,0.625-1.16,0.639-1.758,0.039
		C10.532,27.955,10.546,27.369,11.171,26.796z"/>
</g>
</svg>
