<?xml version="1.0" encoding="utf-8"?>
<!-- Generator: Adobe Illustrator 16.0.4, SVG Export Plug-In . SVG Version: 6.00 Build 0)  -->
<!DOCTYPE svg PUBLIC "-//W3C//DTD SVG 1.0//EN" "http://www.w3.org/TR/2001/REC-SVG-20010904/DTD/svg10.dtd">
<svg version="1.0" id="Ebene_1" xmlns="http://www.w3.org/2000/svg" xmlns:xlink="http://www.w3.org/1999/xlink" x="0px" y="0px"
	 width="17.008px" height="17.008px" viewBox="0 0 17.008 17.008" enable-background="new 0 0 17.008 17.008" xml:space="preserve">
<g>
	<path fill="#545454" d="M13.594,3.842L9.362,8.075v5.145h2.143c0.234,0,0.43,0.194,0.43,0.429s-0.195,0.429-0.43,0.429H5.503
		c-0.234,0-0.429-0.194-0.429-0.429s0.194-0.429,0.429-0.429h2.144V8.075L3.414,3.842C3.28,3.708,3.125,3.514,3.125,3.319
		c0-0.328,0.415-0.389,0.663-0.389h9.431c0.248,0,0.664,0.061,0.664,0.389C13.883,3.514,13.729,3.708,13.594,3.842z"/>
</g>
</svg>
