<?xml version="1.0" encoding="utf-8"?>
<!-- Generator: Adobe Illustrator 16.0.4, SVG Export Plug-In . SVG Version: 6.00 Build 0)  -->
<!DOCTYPE svg PUBLIC "-//W3C//DTD SVG 1.0//EN" "http://www.w3.org/TR/2001/REC-SVG-20010904/DTD/svg10.dtd">
<svg version="1.0" id="Ebene_1" xmlns="http://www.w3.org/2000/svg" xmlns:xlink="http://www.w3.org/1999/xlink" x="0px" y="0px"
	 width="17.008px" height="17.008px" viewBox="0 0 17.008 17.008" enable-background="new 0 0 17.008 17.008" xml:space="preserve">
<path fill="#545454" d="M8.075,7.218c0,0.543-0.349,1.031-0.857,1.213v5.218c0,0.469-0.389,0.857-0.857,0.857H5.503
	c-0.469,0-0.857-0.389-0.857-0.857V8.431c-0.509-0.182-0.857-0.67-0.857-1.213V2.931c0-0.234,0.194-0.429,0.429-0.429
	s0.429,0.194,0.429,0.429v2.786c0,0.235,0.194,0.43,0.429,0.43s0.429-0.194,0.429-0.43V2.931c0-0.234,0.194-0.429,0.429-0.429
	S6.36,2.696,6.36,2.931v2.786c0,0.235,0.194,0.43,0.429,0.43s0.429-0.194,0.429-0.43V2.931c0-0.234,0.194-0.429,0.429-0.429
	s0.429,0.194,0.429,0.429V7.218z M13.22,13.648c0,0.469-0.389,0.857-0.857,0.857h-0.857c-0.469,0-0.857-0.389-0.857-0.857v-3.43
	H9.146c-0.113,0-0.214-0.101-0.214-0.215V4.646c0-1.179,0.965-2.144,2.144-2.144h1.715c0.234,0,0.429,0.194,0.429,0.429V13.648z"/>
</svg>
