<?xml version="1.0" encoding="utf-8"?>
<!-- Generator: Adobe Illustrator 16.0.4, SVG Export Plug-In . SVG Version: 6.00 Build 0)  -->
<!DOCTYPE svg PUBLIC "-//W3C//DTD SVG 1.0//EN" "http://www.w3.org/TR/2001/REC-SVG-20010904/DTD/svg10.dtd">
<svg version="1.0" id="Ebene_1" xmlns="http://www.w3.org/2000/svg" xmlns:xlink="http://www.w3.org/1999/xlink" x="0px" y="0px"
	 width="17.008px" height="17.008px" viewBox="0 0 17.008 17.008" enable-background="new 0 0 17.008 17.008" xml:space="preserve">
<path fill="#545454" d="M13.666,9.79c0,0.214-0.161,0.402-0.382,0.429l-6.993,0.817c0.026,0.147,0.087,0.314,0.087,0.469
	S6.284,11.8,6.217,11.934h6.163c0.234,0,0.429,0.194,0.429,0.429s-0.194,0.429-0.429,0.429H5.521c-0.234,0-0.429-0.194-0.429-0.429
	c0-0.208,0.314-0.724,0.408-0.918L4.314,5.932H2.948c-0.234,0-0.429-0.194-0.429-0.429s0.194-0.429,0.429-0.429h1.715
	c0.455,0,0.462,0.536,0.529,0.857h8.045c0.234,0,0.429,0.194,0.429,0.429V9.79z M5.949,14.506c-0.476,0-0.857-0.382-0.857-0.857
	s0.382-0.857,0.857-0.857s0.857,0.382,0.857,0.857S6.425,14.506,5.949,14.506z M11.951,14.506c-0.476,0-0.857-0.382-0.857-0.857
	s0.382-0.857,0.857-0.857s0.857,0.382,0.857,0.857S12.427,14.506,11.951,14.506z"/>
</svg>
