<?xml version="1.0" encoding="utf-8"?>
<!-- Generator: Adobe Illustrator 16.0.4, SVG Export Plug-In . SVG Version: 6.00 Build 0)  -->
<!DOCTYPE svg PUBLIC "-//W3C//DTD SVG 1.0//EN" "http://www.w3.org/TR/2001/REC-SVG-20010904/DTD/svg10.dtd">
<svg version="1.0" id="Ebene_1" xmlns="http://www.w3.org/2000/svg" xmlns:xlink="http://www.w3.org/1999/xlink" x="0px" y="0px"
	 width="17.008px" height="17.008px" viewBox="0 0 17.008 17.008" enable-background="new 0 0 17.008 17.008" xml:space="preserve">
<path fill="#545454" d="M14.488,12.886c0,0.408,0,1.35,0,1.35H8.504H2.52c0,0,0-0.941,0-1.35s1.018-0.994,2.598-1.555
	c1.578-0.586,2.064-1.07,2.064-2.088c0-0.637-0.461-0.434-0.689-1.553c-0.076-0.486-0.51-0.027-0.586-1.096
	c0-0.434,0.229-0.535,0.229-0.535S6.033,5.423,5.982,4.938C5.932,4.329,6.34,2.772,8.504,2.772c2.189,0,2.598,1.557,2.521,2.166
	C11,5.423,10.873,6.06,10.873,6.06s0.229,0.102,0.229,0.535c-0.076,1.068-0.51,0.609-0.586,1.096
	C10.312,8.81,9.828,8.606,9.828,9.243c0,1.018,0.51,1.502,2.064,2.088C13.471,11.892,14.488,12.478,14.488,12.886z"/>
</svg>
